<svg width="128" height="128" viewBox="0 0 128 128" fill="none" xmlns="http://www.w3.org/2000/svg">
<g clip-path="url(#clip0)">
<path d="M64 61.9355C61.7228 61.9355 59.871 60.0837 59.871 57.8065H55.7419C55.7419 61.6442 58.3821 64.8488 61.9355 65.7712V70.1936H66.0645V66.0646H72.2581V57.8065C72.2581 53.252 68.5544 49.5484 64 49.5484C61.7228 49.5484 59.871 47.6966 59.871 45.4194V41.2904H64C66.2772 41.2904 68.129 43.1422 68.129 45.4194H72.2581C72.2581 41.5817 69.618 38.377 66.0645 37.4547V33.0323H61.9355V37.1613H55.7419V45.4194C55.7419 49.9738 59.4456 53.6775 64 53.6775C66.2772 53.6775 68.129 55.5293 68.129 57.8065V61.9355H64Z" fill="#2400FF"/>
<path d="M45.4194 49.5484H49.5485V53.6774H45.4194V49.5484Z" fill="#2400FF"/>
<path d="M78.4517 49.5484H82.5807V53.6774H78.4517V49.5484Z" fill="#2400FF"/>
<path d="M72.7742 99.0967L64 87.3972L55.2258 99.0967L64 110.796L72.7742 99.0967ZM64 94.2802L67.6129 99.0967L64 103.913L60.3871 99.0967L64 94.2802Z" fill="#2400FF"/>
<path d="M97.5484 99.0967L88.7742 87.3972L80 99.0967L88.7742 110.796L97.5484 99.0967ZM88.7742 94.2802L92.3871 99.0967L88.7742 103.913L85.1613 99.0967L88.7742 94.2802Z" fill="#2400FF"/>
<path d="M48 99.0967L39.2259 87.3972L30.4517 99.0967L39.2259 110.796L48 99.0967ZM39.2259 94.2802L42.8388 99.0967L39.2259 103.913L35.613 99.0967L39.2259 94.2802Z" fill="#2400FF"/>
<path d="M105.29 103.226V82.5806H80.4808C91.5443 76.6683 99.0967 65.009 99.0967 51.6129C99.0967 32.2601 83.3528 16.5161 64 16.5161C44.6471 16.5161 28.9032 32.2601 28.9032 51.6129C28.9032 65.009 36.4556 76.6683 47.5191 82.5806H22.7096V103.226H1.07959L6.03221 115.613L1.07959 128H43.3548V115.613H84.6451V128H126.92L121.968 115.613L126.92 103.226H105.29ZM66.0645 82.4758V78.3467C74.382 77.7086 81.6512 73.2822 86.125 66.7701L89.7157 68.8437C84.5131 76.5836 75.9082 81.8226 66.0645 82.4758ZM91.759 65.255L88.1774 63.1865C89.8639 59.6764 90.8387 55.7601 90.8387 51.6129C90.8387 47.5393 89.9163 43.5947 88.2046 40.0232L91.757 37.9707C93.7933 42.0937 94.9677 46.7137 94.9677 51.6129C94.9677 56.5121 93.7933 61.132 91.759 65.255ZM61.9354 20.75V24.879C53.6179 25.5171 46.3487 29.9435 41.875 36.4556L38.2842 34.382C43.4869 26.6421 52.0917 21.4032 61.9354 20.75ZM36.2409 37.9707L39.8225 40.0393C38.136 43.5494 37.1612 47.4657 37.1612 51.6129C37.1612 55.6865 38.0836 59.631 39.7953 63.2026L36.2429 65.255C34.2066 61.132 33.0322 56.5121 33.0322 51.6129C33.0322 46.7137 34.2066 42.0937 36.2409 37.9707ZM38.2842 68.8437L41.8891 66.7621C43.2933 68.8064 44.9546 70.6895 46.9143 72.3095L49.5423 69.128C44.2983 64.7923 41.2903 58.4072 41.2903 51.6129C41.2903 39.0917 51.4788 28.9032 64 28.9032C68.0221 28.9032 71.9979 29.9909 75.4949 32.0514L77.5927 28.4939C74.0584 26.4113 70.1088 25.1784 66.0645 24.8609V20.748C75.9082 21.4032 84.5131 26.6421 89.7157 34.38L86.1108 36.4617C84.7066 34.4173 83.0453 32.5343 81.0856 30.9143L78.4576 34.0957C83.7016 38.4334 86.7096 44.8185 86.7096 51.6129C86.7096 64.134 76.5211 74.3226 64 74.3226C59.9758 74.3226 56.002 73.2328 52.505 71.1724L50.4072 74.7288C53.9415 76.8125 57.8891 78.0474 61.9354 78.3649V82.4778C52.0917 81.8226 43.4869 76.5836 38.2842 68.8437V68.8437ZM101.161 86.7097V111.484H26.8387V86.7097H101.161ZM7.17838 107.355H22.7096V114.581L35.0967 123.871H7.17838L10.4838 115.613L7.17838 107.355ZM39.2258 121.806L30.9677 115.613H39.2258V121.806ZM97.0322 115.613L88.7742 121.806V115.613H97.0322ZM120.822 123.871H92.9032L105.29 114.581V107.355H120.822L117.516 115.613L120.822 123.871Z" fill="#2400FF"/>
<path d="M125.935 8.25806C122.521 8.25806 119.742 5.47883 119.742 2.06452V0H115.613V2.06452C115.613 5.47883 112.834 8.25806 109.419 8.25806H107.355V12.3871H109.419C112.834 12.3871 115.613 15.1663 115.613 18.5806V20.6452H119.742V18.5806C119.742 15.1663 122.521 12.3871 125.935 12.3871H128V8.25806H125.935ZM117.677 12.4506C117.074 11.6401 116.36 10.9254 115.549 10.3226C116.36 9.71976 117.074 9.00504 117.677 8.19456C118.28 9.00504 118.995 9.71976 119.805 10.3226C118.995 10.9254 118.28 11.6401 117.677 12.4506Z" fill="#2400FF"/>
<path d="M8.25806 43.3548V45.4193H12.3871V43.3548C12.3871 39.9405 15.1663 37.1613 18.5806 37.1613H20.6452V33.0322H18.5806C15.1663 33.0322 12.3871 30.253 12.3871 26.8387V24.7742H8.25806V26.8387C8.25806 30.253 5.47883 33.0322 2.06452 33.0322H0V37.1613H2.06452C5.47883 37.1613 8.25806 39.9405 8.25806 43.3548ZM10.3226 32.9687C10.9254 33.7792 11.6401 34.4939 12.4506 35.0968C11.6401 35.6996 10.9254 36.4143 10.3226 37.2248C9.71976 36.4143 9.00504 35.6996 8.19456 35.0968C9.00504 34.4939 9.71976 33.7792 10.3226 32.9687Z" fill="#2400FF"/>
<path d="M28.9033 18.5806V20.6452H33.0324V18.5806C33.0324 15.1663 35.8116 12.3871 39.2259 12.3871H41.2904V8.25806H39.2259C35.8116 8.25806 33.0324 5.47883 33.0324 2.06452V0H28.9033V2.06452C28.9033 5.47883 26.1241 8.25806 22.7098 8.25806H20.6453V12.3871H22.7098C26.1241 12.3871 28.9033 15.1663 28.9033 18.5806ZM30.9678 8.19456C31.5707 9.00504 32.2854 9.71976 33.0959 10.3226C32.2854 10.9254 31.5707 11.6401 30.9678 12.4506C30.365 11.6401 29.6503 10.9254 28.8398 10.3226C29.6503 9.71976 30.365 9.00504 30.9678 8.19456Z" fill="#2400FF"/>
<path d="M111.484 39.2258V41.2903C111.484 44.7047 108.705 47.4839 105.29 47.4839H103.226V51.6129H105.29C108.705 51.6129 111.484 54.3922 111.484 57.8065V59.871H115.613V57.8065C115.613 54.3922 118.392 51.6129 121.806 51.6129H123.871V47.4839H121.806C118.392 47.4839 115.613 44.7047 115.613 41.2903V39.2258H111.484ZM115.676 49.5484C114.866 50.1512 114.151 50.866 113.548 51.6764C112.946 50.866 112.231 50.1512 111.42 49.5484C112.231 48.9456 112.946 48.2309 113.548 47.4204C114.151 48.2309 114.866 48.9456 115.676 49.5484Z" fill="#2400FF"/>
<path d="M84.6453 0H88.7743V4.12903H84.6453V0Z" fill="#2400FF"/>
<path d="M84.6453 8.25806H88.7743V12.3871H84.6453V8.25806Z" fill="#2400FF"/>
<path d="M88.7742 4.12903H92.9032V8.25806H88.7742V4.12903Z" fill="#2400FF"/>
<path d="M80.5161 4.12903H84.6452V8.25806H80.5161V4.12903Z" fill="#2400FF"/>
<path d="M14.4517 57.8065H18.5807V61.9355H14.4517V57.8065Z" fill="#2400FF"/>
<path d="M14.4517 66.0645H18.5807V70.1936H14.4517V66.0645Z" fill="#2400FF"/>
<path d="M18.5806 61.9355H22.7096V66.0645H18.5806V61.9355Z" fill="#2400FF"/>
<path d="M10.3225 61.9355H14.4515V66.0645H10.3225V61.9355Z" fill="#2400FF"/>
<path d="M4.12903 72.2581H8.25806V76.3871H4.12903V72.2581Z" fill="#2400FF"/>
<path d="M4.12903 80.5161H8.25806V84.6451H4.12903V80.5161Z" fill="#2400FF"/>
<path d="M8.25806 76.3871H12.3871V80.5161H8.25806V76.3871Z" fill="#2400FF"/>
<path d="M0 76.3871H4.12903V80.5161H0V76.3871Z" fill="#2400FF"/>
<path d="M99.0969 16.5161H103.226V20.6451H99.0969V16.5161Z" fill="#2400FF"/>
<path d="M99.0969 24.7742H103.226V28.9032H99.0969V24.7742Z" fill="#2400FF"/>
<path d="M103.226 20.6451H107.355V24.7742H103.226V20.6451Z" fill="#2400FF"/>
<path d="M94.9678 20.6451H99.0968V24.7742H94.9678V20.6451Z" fill="#2400FF"/>
<path d="M119.742 72.2581H123.871V76.3871H119.742V72.2581Z" fill="#2400FF"/>
<path d="M119.742 80.5161H123.871V84.6451H119.742V80.5161Z" fill="#2400FF"/>
<path d="M123.871 76.3871H128V80.5161H123.871V76.3871Z" fill="#2400FF"/>
<path d="M115.613 76.3871H119.742V80.5161H115.613V76.3871Z" fill="#2400FF"/>
</g>
<defs>
<clipPath id="clip0">
<rect width="128" height="128" fill="white"/>
</clipPath>
</defs>
</svg>
