<svg width="64" height="64" viewBox="0 0 64 64" fill="none" xmlns="http://www.w3.org/2000/svg">
<g clip-path="url(#clip0)">
<path d="M55.8114 43.6093H55.8075C53.9672 43.6083 52.9281 42.6532 52.3334 40.4179C51.7255 38.1318 51.705 34.8163 51.6835 31.3061C51.6576 27.0532 51.6283 22.2329 50.5712 17.9218C50.4462 17.4121 49.9311 17.1001 49.4213 17.2251C48.912 17.3501 48.6 17.8647 48.7245 18.3745C49.7289 22.4682 49.7572 27.1699 49.7826 31.3178C49.8051 34.9526 49.8256 38.3857 50.496 40.9062C50.7875 42.0024 51.2055 42.9032 51.7455 43.6093H12.1387C12.6787 42.9032 13.0967 42.0024 13.3882 40.9062C14.0586 38.3857 14.0796 34.9526 14.1015 31.3178C14.1352 25.7685 14.1738 19.479 16.4443 14.6655C19 9.24705 24.0693 6.61278 31.9423 6.61278C36.266 6.61278 39.8041 7.42528 42.4579 9.0283C44.7592 10.4179 46.4486 12.393 47.623 15.0664C47.8339 15.5468 48.3949 15.7656 48.8754 15.5542C49.3559 15.3432 49.5746 14.7827 49.3637 14.3017C48.0448 11.2998 46.0522 8.97801 43.4408 7.40086C41.7738 6.39403 39.8163 5.66796 37.5868 5.22558C37.3622 2.30712 34.9174 0 31.9423 0C28.9672 0 26.5219 2.30761 26.2988 5.22655C24.1718 5.64794 22.2915 6.32714 20.6777 7.26219C18.081 8.76707 16.0781 10.9853 14.7246 13.8545C12.2754 19.0473 12.2353 25.56 12.2007 31.3061C12.1792 34.8163 12.1592 38.1318 11.5508 40.4179C10.956 42.6532 9.91698 43.6083 8.07665 43.6093H8.07274C5 43.6093 2.5 46.1093 2.5 49.1825C2.5 52.2553 5 54.7553 8.07274 54.7553H14.0888C14.6137 54.7553 15.0395 54.3295 15.0395 53.8046C15.0395 53.2797 14.6137 52.8544 14.0888 52.8544H8.07274C6.04833 52.8544 4.40088 51.2069 4.40088 49.1825C4.40088 47.1581 6.04784 45.5111 8.07225 45.5107H8.07274H8.07616H55.8075H55.8109H55.8119C57.8358 45.5111 59.4828 47.1581 59.4828 49.1825C59.4828 51.2069 57.8353 52.8544 55.8109 52.8544H17.8911C17.3662 52.8544 16.9409 53.2797 16.9409 53.8046C16.9409 54.3295 17.3662 54.7553 17.8911 54.7553H21.7929C22.2739 59.933 26.6411 63.9999 31.9423 63.9999C37.2431 63.9999 41.6103 59.933 42.0912 54.7553H55.8114C58.8842 54.7553 61.3842 52.2553 61.3842 49.1825C61.3842 46.1093 58.8842 43.6093 55.8114 43.6093V43.6093ZM31.9423 1.90088C33.7626 1.90088 35.2851 3.20117 35.6303 4.92138C34.4633 4.78368 33.2348 4.7119 31.9423 4.7119C30.6498 4.7119 29.4213 4.78319 28.2548 4.92089C28.6 3.20068 30.122 1.90088 31.9423 1.90088V1.90088ZM31.9423 62.099C27.6904 62.099 24.1772 58.8822 23.7041 54.7553H40.1801C39.707 58.8822 36.1938 62.099 31.9423 62.099V62.099Z" fill="#2400FF"/>
<path d="M47.2042 5.96524C47.2213 5.97451 48.9137 6.94033 50.5788 9.18399C52.8092 12.1889 53.9396 15.9428 53.9396 20.3417C53.9396 20.8666 54.3654 21.2924 54.8903 21.2924C55.4152 21.2924 55.841 20.8666 55.841 20.3417C55.841 14.286 53.7731 10.2665 52.0382 7.96133C50.132 5.42813 48.2077 4.34756 48.1266 4.30264C47.6681 4.04971 47.0929 4.21573 46.838 4.67276C46.5831 5.13028 46.7477 5.7084 47.2042 5.96524Z" fill="#2400FF"/>
<path d="M54.3755 6.31404C54.5283 6.41413 58.1216 8.82575 58.1216 14.8931C58.1216 15.418 58.5474 15.8433 59.0723 15.8433C59.5972 15.8433 60.0225 15.418 60.0225 14.8931C60.0225 7.73689 55.5893 4.83308 55.4004 4.71296C54.9595 4.4322 54.3765 4.56208 54.0933 5.00202C53.8101 5.44148 53.9375 6.02839 54.3755 6.31404Z" fill="#2400FF"/>
<path d="M8.99365 21.2925C9.51856 21.2925 9.94434 20.8667 9.94434 20.3418C9.94434 15.9429 11.0752 12.189 13.3052 9.18413C14.96 6.95463 16.6421 5.98686 16.6792 5.96538C17.1367 5.71098 17.3027 5.13383 17.0493 4.67534C16.7949 4.21586 16.2168 4.04936 15.7573 4.30278C15.6763 4.3477 13.752 5.42827 11.8457 7.96147C10.1113 10.2666 8.04346 14.2862 8.04346 20.3418C8.04346 20.8667 8.46875 21.2925 8.99365 21.2925Z" fill="#2400FF"/>
<path d="M4.81201 15.8433C5.33691 15.8433 5.76221 15.418 5.76221 14.8931C5.76221 8.83059 9.3501 6.4175 9.5083 6.31448C9.94775 6.03176 10.0767 5.44631 9.7959 5.00491C9.51416 4.56204 8.92676 4.43166 8.4834 4.7134C8.29492 4.83352 3.86133 7.73684 3.86133 14.8931C3.86133 15.418 4.28711 15.8433 4.81201 15.8433Z" fill="#2400FF"/>
</g>
<defs>
<clipPath id="clip0">
<rect width="64" height="64" fill="white"/>
</clipPath>
</defs>
</svg>
