<?xml version="1.0" encoding="UTF-8"?>
<svg width="400px" height="400px" viewBox="0 0 400 400" version="1.1" xmlns="http://www.w3.org/2000/svg" xmlns:xlink="http://www.w3.org/1999/xlink">
    <!-- Generator: Sketch 63 (92445) - https://sketch.com -->
    <title>ic_bingo</title>
    <desc>Created with Sketch.</desc>
    <defs>
        <rect id="path-1" x="0" y="0" width="400" height="400"></rect>
    </defs>
    <g id="Page-1" stroke="none" stroke-width="1" fill="none" fill-rule="evenodd">
        <g id="ic_bingo">
            <mask id="mask-2" fill="white">
                <use xlink:href="#path-1"></use>
            </mask>
            <g id="Rectangle"></g>
            <g id="bingo-1" mask="url(#mask-2)" fill-rule="nonzero">
                <polygon id="Path" fill="#FDBD40" points="0 0 345 0 345 400 0 400"></polygon>
                <polygon id="Path" fill="#FFD782" points="124 55 221 55 221 152 124 152"></polygon>
                <polygon id="Path" fill="#FFF69A" points="124 151 221 151 221 248 124 248"></polygon>
                <polygon id="Path" fill="#FFD782" points="27 151 124 151 124 248 27 248"></polygon>
                <polygon id="Path" fill="#FFD782" points="221 151 318 151 318 248 221 248"></polygon>
                <polygon id="Path" fill="#FFF69A" points="27 55 124 55 124 152 27 152"></polygon>
                <polygon id="Path" fill="#FFF69A" points="221 55 318 55 318 152 221 152"></polygon>
                <polygon id="Path" fill="#FFD782" points="124 248 221 248 221 345 124 345"></polygon>
                <polygon id="Path" fill="#FFF69A" points="27 248 124 248 124 345 27 345"></polygon>
                <polygon id="Path" fill="#FFF69A" points="221 248 318 248 318 345 221 345"></polygon>
                <path d="M100.986129,78.0140272 C98.3028374,75.3307359 93.9533564,75.3276198 91.2700651,78.0109111 C91.2669489,78.0109111 91.2669489,78.0140272 91.2669489,78.0140272 L75.5021839,93.7756762 L59.7405349,78.0140272 C57.0541274,75.333852 52.701842,75.3366565 50.0185506,78.0261801 C47.3411799,80.7094714 47.3411799,85.0527201 50.0185506,87.7360115 L65.7833157,103.49766 L50.0185506,119.259309 C47.3321432,121.939796 47.3262226,126.292082 50.0063978,128.981605 C52.6868846,131.667701 57.0391701,131.673933 59.728382,128.993446 C59.7314982,128.990642 59.7374188,128.98441 59.7405349,128.981605 L75.5021839,113.21684 L91.2669489,128.978489 C93.9564725,131.658664 98.3056419,131.652744 100.986129,128.96322 C103.660383,126.283045 103.660383,121.942601 100.986129,119.259309 L85.2241681,103.49766 L100.986129,87.7328954 C103.66942,85.0527201 103.672225,80.7032392 100.988933,78.0171434 L100.986129,78.0140272 Z" id="Path" fill="#E9686A"></path>
                <path d="M197.985901,174.014027 C195.305631,171.330736 190.95288,171.32762 188.269493,174.010911 C188.269493,174.014027 188.266689,174.014027 188.266689,174.014027 L172.50417,189.775676 L156.739157,174.014027 C154.049538,171.333852 149.700215,171.342889 147.019633,174.028985 C144.345284,176.712276 144.345284,181.05272 147.019633,183.736011 L162.781841,199.49766 L147.019633,215.259621 C144.330326,217.942912 144.32721,222.295198 147.007791,224.981605 C149.688062,227.667701 154.040501,227.673933 156.73012,224.993446 C156.732925,224.987526 156.736041,224.98441 156.739157,224.981605 L172.50417,209.219645 L188.266689,224.981605 C190.95288,227.66178 195.305631,227.658664 197.985901,224.969452 C200.663367,222.286161 200.663367,217.942912 197.985901,215.259621 L182.223694,199.49766 L197.985901,183.736011 C200.669288,181.05272 200.672404,176.703239 197.989018,174.019948 C197.989018,174.017143 197.989018,174.017143 197.985901,174.014027 L197.985901,174.014027 Z" id="Path" fill="#E9686A"></path>
                <path d="M279.220347,296.498169 L294.984141,280.735335 C297.670914,278.051842 297.670914,273.698918 294.984141,271.01262 C292.300484,268.329127 287.947607,268.329127 285.26395,271.01262 L269.500156,286.778259 L253.733245,271.015425 C251.049588,268.329127 246.696399,268.329127 244.012742,271.015425 C241.329086,273.698918 241.329086,278.051842 244.012742,280.735335 L259.776848,296.498169 L244.012742,312.26412 C241.329086,314.948548 241.329086,319.298979 244.012742,321.985277 C246.696399,324.671574 251.049588,324.671574 253.733245,321.985277 L269.500156,306.220884 L285.26395,321.985277 C287.947607,324.671574 292.300484,324.671574 294.987258,321.985277 C297.670914,319.298979 297.670914,314.948548 294.987258,312.26412 L279.220347,296.498169 Z" id="Path" fill="#E9686A"></path>
                <polygon id="Path" fill="#394D5C" points="372 124 400 124 400 303 372 303"></polygon>
                <polygon id="Path" fill="#FDBD40" points="372 304 400 304 400 345 372 345"></polygon>
                <polygon id="Path" fill="#E9686A" points="372 124 386 69 400 124"></polygon>
                <path d="M317.125039,35 L275.873714,35 C272.079085,35 269,31.8649423 269,27.9984769 C269,24.131948 272.079085,21 275.873714,21 L317.125039,21 C320.920915,21 324,24.131948 324,27.9984769 C324,31.8649423 320.920915,35 317.125039,35 L317.125039,35 Z" id="Path" fill="#FFFFFF"></path>
                <path d="M69.1263362,379 L27.8764998,379 C24.0790312,379 21,375.868087 21,372 C21,368.135086 24.0790312,365 27.8764998,365 L69.1263362,365 C72.9237425,365 76,368.135086 76,372 C76,375.868087 72.9237425,379 69.1263362,379 Z" id="Path" fill="#FFFFFF"></path>
                <path d="M96,199.500155 C96,210.822537 86.8219126,220 75.4984512,220 C64.1780874,220 55,210.822537 55,199.500155 C55,188.177463 64.1780874,179 75.4984512,179 C86.8219126,179 96,188.177463 96,199.500155 Z" id="Path" fill="#E9686A"></path>
                <path d="M290,199.500155 C290,210.822537 280.821913,220 269.501549,220 C258.178087,220 249,210.822537 249,199.500155 C249,188.177463 258.178087,179 269.501549,179 C280.821913,179 290,188.177463 290,199.500155 L290,199.500155 Z" id="Path" fill="#E9686A"></path>
                <path d="M290,103.501394 C290,114.821843 280.821913,124 269.501549,124 C258.178087,124 249,114.821843 249,103.501394 C249,92.1781567 258.178087,83 269.501549,83 C280.821913,83 290,92.1781567 290,103.501394 L290,103.501394 Z" id="Path" fill="#E9686A"></path>
                <path d="M193,103.501394 C193,114.821843 183.821843,124 172.501704,124 C161.178157,124 152,114.821843 152,103.501394 C152,92.1781567 161.178157,83 172.501704,83 C183.821843,83 193,92.1781567 193,103.501394 Z" id="Path" fill="#E9686A"></path>
                <path d="M96,296.498451 C96,307.822084 86.8219126,317 75.4984512,317 C64.1780874,317 55,307.822084 55,296.498451 C55,285.178226 64.1780874,276 75.4984512,276 C86.8219126,276 96,285.178226 96,296.498451 Z" id="Path" fill="#E9686A"></path>
                <path d="M193,296.498451 C193,307.822084 183.821843,317 172.501704,317 C161.178157,317 152,307.822084 152,296.498451 C152,285.178226 161.178157,276 172.501704,276 C183.821843,276 193,285.178226 193,296.498451 Z" id="Path" fill="#E9686A"></path>
            </g>
        </g>
    </g>
</svg>