<?xml version="1.0" encoding="UTF-8"?>
<svg width="356px" height="400px" viewBox="0 0 356 400" version="1.1" xmlns="http://www.w3.org/2000/svg" xmlns:xlink="http://www.w3.org/1999/xlink">
    <!-- Generator: Sketch 63 (92445) - https://sketch.com -->
    <title>ic_buy</title>
    <desc>Created with Sketch.</desc>
    <defs>
        <rect id="path-1" x="0" y="0" width="400" height="400"></rect>
    </defs>
    <g id="Page-1" stroke="none" stroke-width="1" fill="none" fill-rule="evenodd">
        <g id="ic_buy" transform="translate(-22.000000, 0.000000)">
            <mask id="mask-2" fill="white">
                <use xlink:href="#path-1"></use>
            </mask>
            <g id="Rectangle"></g>
            <g id="buy-(1)-1" mask="url(#mask-2)" fill-rule="nonzero">
                <g transform="translate(22.000000, 0.000000)">
                    <path d="M282.690475,49 C239.320703,49 83.6925746,49 19.3092754,49 C8.66755306,49 0,57.6139048 0,68.2852292 L0,162.714771 C0,173.44847 8.73625023,182 19.3092754,182 L181.856145,182 L203.989124,182 L282.690475,182 C293.353524,182 302,173.365824 302,162.714771 L302,68.2852292 C302,57.6341765 293.353524,49 282.690475,49 Z" id="Path" fill="#F8A748"></path>
                    <path d="M42.5564374,162.714771 C42.5564374,157.186839 42.5564374,73.8499614 42.5564374,68.2852292 C42.5564374,57.6341765 51.2617077,49 61.9990567,49 L19.4426822,49 C8.72743676,49 0,57.6139048 0,68.2852292 L0,162.714771 C0,173.44847 8.79660855,182 19.4426822,182 L62,182 C51.2406418,182 42.5564374,173.343369 42.5564374,162.714771 Z" id="Path" fill="#F38D1A"></path>
                    <path d="M22.7066245,69 L279.293376,69 C280.788567,69 282,70.217475 282,71.7180256 L282,159.281974 C282,160.783464 280.787632,162 279.293376,162 L22.7066245,162 C21.2114327,162 20,160.782838 20,159.281974 L20,71.7180256 C20,70.2165356 21.2120564,69 22.7066245,69 Z" id="Path" fill="#FC5B6F"></path>
                    <path d="M22.6562804,69 C21.1888997,69 20,70.217475 20,71.7180256 L20,159.281974 C20,160.783464 21.1895118,162 22.6562804,162 L42,162 L42,69 L22.6562804,69 Z" id="Path" fill="#F74352"></path>
                    <path d="M94,93.4795157 C94,91.0061927 96.7010658,90 98.9859029,90 L114.016562,90 C123.032747,90 128.679942,93.9885455 128.679942,102.905936 C128.679942,107.819792 127.022922,112.366709 122.447563,114.288843 C129.385763,116.974522 129.747357,120.727602 130,127.412132 C130,137.136788 125.254423,143 115.263038,143 L98.9859029,143 C96.5816922,143 94,141.898247 94,139.591998 L94,93.4795157 Z M105.36513,109.938043 L113.063468,109.938043 C115.907277,109.938043 117.242493,107.438176 117.242493,104.935185 C117.242493,102.510267 115.960332,99.8595646 113.063468,99.8595646 L105.36513,99.8595646 L105.36513,109.938043 Z M112.697136,133.139499 C116.827212,133.139499 118.562551,130.63401 118.562551,126.469022 L118.562551,125.309495 C118.562551,121.225702 117.149331,118.639018 112.697136,118.639018 L105.36513,118.639018 L105.36513,133.140123 L112.697136,133.139499 Z" id="Shape" fill="#EFEFEF"></path>
                    <path d="M160.548568,93.3799077 C160.548568,90.8183391 163.672692,90 166.274442,90 C168.880619,90 172,90.9515283 172,93.3799077 L172,126.028292 C172,136.603822 165.933571,143 153.500316,143 C140.974729,143 135,136.513068 135,126.028292 L135,93.3799077 C135,90.8183391 138.124124,90 140.725558,90 C143.359561,90 146.452065,90.9608205 146.452065,93.3799077 L146.452065,126.028292 C146.452065,130.820934 148.996898,133.219888 153.499684,133.219888 C157.989822,133.219888 160.546987,130.833943 160.546987,126.028292 L160.546987,93.3799077 L160.548568,93.3799077 Z" id="Path" fill="#EFEFEF"></path>
                    <path d="M191.372789,121.335632 C191.372789,120.949593 191.2758,120.61099 191.083687,120.320759 L176.143619,95.4691512 C176.046629,95.2765999 176,95.0103984 176,94.6727314 C176,93.1831891 177.360025,92.0746925 178.670312,91.3756406 C180.493522,90.405706 184.218281,89.3643059 185.670943,90.5789086 C186.922788,91.6259261 186.767356,92.1480305 197.001894,110.757791 L207.033438,92.1371078 C208.056176,90.3386095 209.161294,89.4195435 212.771033,90.3979041 C215.43606,91.1234826 218.897518,93.231561 217.786805,95.4700875 L202.91979,120.321383 C202.726433,120.611614 202.630687,120.950218 202.630687,121.336569 L202.630687,139.521905 C202.630687,142.096538 199.292953,143 197.001894,143 C194.689074,143 191.372789,142.091857 191.372789,139.521905 L191.372789,121.335632 Z" id="Path" fill="#EFEFEF"></path>
                    <path d="M300.967759,28.2151537 C298.129712,26.5983913 297.156667,23.017374 298.797121,20.217446 L308.920528,2.92817181 C310.557863,0.127475917 314.191187,-0.831204371 317.029234,0.785558024 C319.8704,2.40232042 320.843444,5.98332535 319.202991,8.78325338 L309.079583,26.0725399 C307.436011,28.8809246 303.799568,29.8265345 300.967759,28.2151537 Z" id="Path" fill="#FAC149"></path>
                    <path d="M317.78587,45.0305716 C316.168344,42.190964 317.127789,38.5601335 319.929246,36.9196793 L337.217714,26.7961743 C340.019171,25.1572794 343.598641,26.1295448 345.216167,28.9691524 C346.830618,31.8086976 345.871173,35.4398399 343.072791,37.0802941 L325.784323,47.2037056 C322.995166,48.836363 319.409547,47.8835897 317.78587,45.0305716 Z" id="Path" fill="#FAC149"></path>
                    <path d="M350.145479,74 L329.851446,74 C326.619775,74 324,71.313828 324,67.9998424 C324,64.6858569 326.619775,62 329.851446,62 L350.145479,62 C353.380225,62 356,64.6858569 356,67.9998424 C356,71.313828 353.380225,74 350.145479,74 Z" id="Path" fill="#FAC149"></path>
                    <path d="M221.832437,325 L293,306.494489 L288.597608,290.852424 C288.116532,289.132604 288.16605,287.30731 288.740207,285.615659 C292.667791,274.043885 293.006268,261.559152 289.715835,249.79208 L277.690507,206.797213 C276.124112,201.198957 270.429554,197.634752 264.774171,199.010295 C258.861169,200.448433 255.361069,206.474844 256.984504,212.281544 C255.393349,206.592212 249.484736,203.268374 243.78861,204.857682 C238.091858,206.446676 234.763503,212.34727 236.354658,218.035664 C234.763503,212.346331 228.85489,209.022494 223.158764,210.611801 C217.462012,212.200796 214.133657,218.101389 215.724811,223.789783 L200.703337,170.082583 C199.137882,164.484014 193.442697,160.920122 187.787314,162.295665 C181.87494,163.733803 178.373272,169.760214 179.997647,175.566601 L201.476819,252.362264 C202.605075,256.398128 197.960422,259.560781 194.610755,257.036605 L170.277409,238.696974 C165.13977,235.806612 158.46833,237.340836 155.480646,242.417355 C152.436862,247.589334 154.243639,254.227619 159.454614,257.159606 L179.443548,272.276493 C188.480565,279.111016 197.227682,286.318923 205.662962,293.881435 C212.136331,299.685631 216.818593,307.213402 219.159097,315.582461 L221.832437,325 Z" id="Path" fill="#EDB87E"></path>
                    <path d="M288.768802,285.593493 C290.905563,279.247403 291.966786,272.626363 291.954338,266 C279.88752,285.329503 258.52489,298.187028 234.165006,298.187028 C222.532013,298.187028 211.583681,295.249632 202,290.082572 C203.429072,291.337385 204.862189,292.5875 206.273522,293.862981 C212.701544,299.670444 217.350384,307.202452 219.675115,315.574029 L222.328794,325 L293,306.483135 L288.627202,290.832266 C288.148874,289.112417 288.198668,287.286096 288.768802,285.593493 Z" id="Path" fill="#E4A970"></path>
                    <path d="M310,332.271683 L222.677615,356 L215.066962,327.197406 C214.788012,326.140922 215.405932,325.052901 216.449276,324.769069 L299.995722,302.067907 C301.040621,301.785022 302.110397,302.411658 302.390281,303.469719 L310,332.271683 Z" id="Path" fill="#EFEFEF"></path>
                    <path d="M237.038863,320.078362 C236.93789,319.710669 236.955244,319.339885 237.055271,319 L216.470226,324.401081 C215.412212,324.679169 214.784283,325.742082 215.068271,326.780276 L222.790542,355 L245,349.172517 L237.038863,320.078362 Z" id="Path" fill="#DDDDDD"></path>
                    <path d="M312.926209,333.76659 C312.59656,332.496871 311.290403,331.74249 310.021565,332.080875 L222.695333,355.438745 C221.476253,355.764713 220.756312,357.009596 221.075698,358.229645 C224.404843,370.929944 227.080288,383.779256 229.109496,396.724807 C229.404937,398.609207 231.01804,400 232.926895,400 L321.736549,400 C323.695784,400 325.219634,398.286344 324.973952,396.346064 C322.30255,375.269963 318.284563,354.367711 312.926209,333.76659 Z" id="Path" fill="#647892"></path>
                    <path d="M244.590886,349 L222.695915,354.922783 C221.476416,355.252525 220.756228,356.511823 221.075724,357.745998 C224.406012,370.59335 227.082375,383.591441 229.11228,396.686884 C229.406888,398.589963 231.021479,400 232.930989,400 L254,400 C251.732107,382.859729 248.599987,365.835653 244.590886,349 Z" id="Path" fill="#4D6682"></path>
                    <path d="M298,368 C297.606092,368 297.215336,367.959005 296.830882,367.886476 C296.446429,367.80764 296.071429,367.694116 295.702731,367.542751 C295.343487,367.391386 294.990546,367.208487 294.672269,366.990899 C294.341387,366.776466 294.032563,366.517883 293.758403,366.246688 C293.477941,365.966032 293.232143,365.663301 293.014706,365.335344 C292.80042,365.007386 292.608193,364.660508 292.463235,364.294709 C292.311975,363.935217 292.192227,363.556804 292.119748,363.172084 C292.037815,362.787365 292,362.386878 292,362.005312 C292,361.611132 292.040966,361.213798 292.119748,360.829079 C292.192227,360.444359 292.311975,360.0691 292.463235,359.706454 C292.608193,359.340655 292.80042,358.993777 293.014706,358.665819 C293.232143,358.337862 293.477941,358.035132 293.758403,357.754475 C294.032563,357.48328 294.341387,357.224698 294.672269,357.010264 C294.990546,356.792676 295.343487,356.609777 295.702731,356.458412 C296.071429,356.307047 296.446429,356.193523 296.830882,356.114687 C298.781513,355.720507 300.845588,356.360655 302.238445,357.754475 C302.518908,358.035132 302.767857,358.337862 302.991597,358.665819 C303.205882,358.993777 303.391807,359.340655 303.543067,359.706454 C303.688025,360.0691 303.807773,360.444359 303.877101,360.829079 C303.959034,361.213798 304,361.614285 304,362.005312 C304,363.582031 303.357143,365.127217 302.238445,366.246688 C301.12605,367.359852 299.581933,368 298,368 Z" id="Path" fill="#7D93AA"></path>
                </g>
            </g>
        </g>
    </g>
</svg>