<?xml version="1.0" encoding="UTF-8"?>
<svg width="400px" height="400px" viewBox="0 0 400 400" version="1.1" xmlns="http://www.w3.org/2000/svg" xmlns:xlink="http://www.w3.org/1999/xlink">
    <!-- Generator: Sketch 63 (92445) - https://sketch.com -->
    <title>ic_cryptocurrency</title>
    <desc>Created with Sketch.</desc>
    <defs>
        <rect id="path-1" x="0" y="0" width="400" height="400"></rect>
    </defs>
    <g id="Page-1" stroke="none" stroke-width="1" fill="none" fill-rule="evenodd">
        <g id="ic_cryptocurrency">
            <mask id="mask-2" fill="white">
                <use xlink:href="#path-1"></use>
            </mask>
            <use id="Rectangle" fill-opacity="0" fill="#FFFFFF" xlink:href="#path-1"></use>
            <g id="cryptocurrency-1" mask="url(#mask-2)" fill-rule="nonzero">
                <g transform="translate(-3.000000, 0.000000)">
                    <path d="M203.500158,135 C240.77943,135 271,104.779373 271,67.5000316 C271,30.2206901 240.77943,0 203.500158,0 C166.220887,0 136,30.2206901 136,67.5000316 C136,104.779373 166.220887,135 203.500158,135 Z" id="Path" fill="#FDB62F"></path>
                    <path d="M159,119.245939 C187.172934,143.976414 229.883022,140.982175 254.395254,112.557078 C276.534915,86.8829414 276.534915,48.6739128 254.395254,23 L159,119.245939 Z" id="Path" fill="#FFA12E"></path>
                    <path d="M332.498418,238 C369.777111,238 400,207.779359 400,170.5 C400,133.220641 369.777111,103 332.498418,103 C295.220358,103 265,133.220641 265,170.5 C265,207.779359 295.220358,238 332.498418,238 Z" id="Path" fill="#FDB62F"></path>
                    <path d="M287,221.245925 C315.172675,245.976421 357.883321,242.98218 382.395645,214.557058 C404.534785,188.8829 404.534785,150.673839 382.395645,125 L287,221.245925 Z" id="Path" fill="#FFA12E"></path>
                    <path d="M107.500158,392 C144.77943,392 175,361.780063 175,324.501107 C175,287.220887 144.77943,257 107.500158,257 C70.2208865,257 40,287.220887 40,324.501107 C40,361.780063 70.2208865,392 107.500158,392 Z" id="Path" fill="#FDB62F"></path>
                    <path d="M298.500316,392 C335.779992,392 366,361.780063 366,324.501107 C366,287.220887 335.779992,257 298.500316,257 C261.220957,257 231,287.220887 231,324.501107 C231,361.780063 261.220957,392 298.500316,392 Z" id="Path" fill="#FDB62F"></path>
                    <path d="M254,377.246222 C282.172914,401.977352 324.882971,398.981192 349.395504,370.556077 C371.534832,344.883845 371.534832,306.673833 349.395504,281 L254,377.246222 Z" id="Path" fill="#FFA12E"></path>
                    <path d="M73.4998418,238 C110.779113,238 141,207.779359 141,170.5 C141,133.220641 110.779113,103 73.4998418,103 C36.2208865,103 6,133.220641 6,170.5 C6,207.779359 36.2208865,238 73.4998418,238 Z" id="Path" fill="#FDB62F"></path>
                    <path d="M30,221.245925 C58.1730289,245.976421 100.883068,242.98218 125.395273,214.557058 C147.534909,188.8829 147.534909,150.673839 125.395273,125 L30,221.245925 Z" id="Path" fill="#FFA12E"></path>
                    <polygon id="Path" fill="#DBDBDB" points="60 33 73 33 73 46 60 46"></polygon>
                    <polygon id="Path" fill="#DBDBDB" points="102 27 115 27 115 40 102 40"></polygon>
                    <polygon id="Path" fill="#DBDBDB" points="47 70 60 70 60 83 47 83"></polygon>
                    <polygon id="Path" fill="#DBDBDB" points="0 271 13 271 13 284 0 284"></polygon>
                    <polygon id="Path" fill="#DBDBDB" points="14 238 27 238 27 251 14 251"></polygon>
                    <polygon id="Path" fill="#DBDBDB" points="6 305 19 305 19 318 6 318"></polygon>
                    <polygon id="Path" fill="#DBDBDB" points="198 387 211 387 211 400 198 400"></polygon>
                    <polygon id="Path" fill="#DBDBDB" points="176 373 189 373 189 386 176 386"></polygon>
                    <polygon id="Path" fill="#DBDBDB" points="217 373 230 373 230 386 217 386"></polygon>
                    <polygon id="Path" fill="#DBDBDB" points="339 27 352 27 352 40 339 40"></polygon>
                    <polygon id="Path" fill="#DBDBDB" points="352 70 365 70 365 83 352 83"></polygon>
                    <polygon id="Path" fill="#DBDBDB" points="291 20 304 20 304 33 291 33"></polygon>
                    <polygon id="Path" fill="#DBDBDB" points="379 238 392 238 392 251 379 251"></polygon>
                    <polygon id="Path" fill="#DBDBDB" points="379 298 392 298 392 311 379 311"></polygon>
                    <polygon id="Path" fill="#DBDBDB" points="393 265 406 265 406 278 393 278"></polygon>
                    <path d="M63,377.246222 C91.1729339,401.977352 133.883022,398.981192 158.395254,370.556077 C180.534915,344.883845 180.534915,306.673833 158.395254,281 L63,377.246222 Z" id="Path" fill="#FFA12E"></path>
                    <path d="M237.991992,54.9284965 C237.957346,46.3326823 232.67571,38.685385 224.793779,35.8201136 L224.793779,21 L211.595257,21 L211.595257,34.5713286 L198.396735,34.5713286 L198.396735,21 L185.198522,21 L185.198522,34.5713286 L178.599106,34.5713286 C174.954796,34.5713286 172,37.6096359 172,41.3572633 L172,95.6428322 C172,99.3904595 174.954796,102.428767 178.599106,102.428767 L185.198522,102.428767 L185.198522,116 L198.396735,116 L198.396735,102.428767 L211.595257,102.428767 L211.595257,116 L224.793779,116 L224.793779,101.179982 C235.066892,97.4861101 240.482472,85.928328 236.89013,75.3655026 C236.028005,72.8300809 234.684241,70.4966406 232.937101,68.5000477 C236.195357,64.7737318 237.996323,59.9389044 237.991992,54.9284965 Z M218.194363,88.8572156 L185.198522,88.8572156 L185.198522,75.2856643 L218.194363,75.2856643 C221.838983,75.2856643 224.793779,78.3239716 224.793779,82.071599 C224.793779,85.8189083 221.838983,88.8572156 218.194363,88.8572156 Z M218.194363,61.7144311 L185.198522,61.7144311 L185.198522,48.1428799 L218.194363,48.1428799 C221.838983,48.1428799 224.793779,51.1811872 224.793779,54.9284965 C224.793779,58.6761238 221.838983,61.7144311 218.194363,61.7144311 Z" id="Shape" fill="#F46B27"></path>
                    <path d="M350.571543,163.129288 C349.249964,163.135992 347.934754,163.267849 346.638652,163.524218 C354.399345,155.351995 354.084077,142.418574 345.934871,134.636173 C337.78248,126.853772 324.881959,127.169844 317.119355,135.342068 C309.623296,143.233338 309.623296,155.632948 317.119355,163.524218 C315.899999,163.278065 314.6609,163.146209 313.416705,163.129288 C302.160674,163.109493 293.019806,172.241427 293.000031,183.526483 C292.980636,194.81122 302.08934,203.9754 313.345371,203.995194 C321.40764,204.009561 328.716131,199.259857 331.999378,191.878453 C336.578729,202.18592 348.628981,206.819092 358.908636,202.225828 C369.191476,197.632883 373.812225,185.553496 369.22969,175.246029 C365.949627,167.86207 358.634767,163.112047 350.571543,163.129288 Z M331.88792,142.696334 C335.639293,142.696334 338.683702,145.745953 338.683702,149.507212 C338.683702,153.268472 335.639293,156.31809 331.88792,156.31809 C328.136547,156.31809 325.095323,153.268472 325.095323,149.507212 C325.095323,145.745953 328.136547,142.696334 331.88792,142.696334 Z M335.820811,169.545235 C334.234917,171.213713 332.938814,173.141435 331.996194,175.246029 C331.053574,173.15229 329.770209,171.23255 328.193868,169.565668 C329.410358,169.804797 330.649139,169.929949 331.88792,169.940166 C333.209499,169.933461 334.527893,169.801285 335.820811,169.545235 Z M313.416705,190.373119 C309.665013,190.373119 306.623152,187.323501 306.623152,183.562241 C306.623152,179.800662 309.665013,176.751044 313.416705,176.751044 C317.168715,176.751044 320.210257,179.800662 320.210257,183.562241 C320.210257,187.323501 317.168715,190.373119 313.416705,190.373119 Z M350.571543,190.373119 C346.82017,190.373119 343.778946,187.323501 343.778946,183.562241 C343.778946,179.800662 346.82017,176.751044 350.571543,176.751044 C354.322916,176.751044 357.36414,179.800662 357.36414,183.562241 C357.36414,187.323501 354.322916,190.373119 350.571543,190.373119 Z" id="Shape" fill="#F46B27"></path>
                    <path d="M91.9283826,339.160769 L97.8550072,325.324782 L121.667126,325.324782 L121.667126,311.485551 L103.781319,311.485551 L114.447431,286.618397 L102.261383,281 L89.1884984,311.485551 L75.0025354,311.485551 L75.0025354,325.324782 L83.2621864,325.324782 L75.5759487,343.273294 C74.0810118,346.763103 75.5965728,350.852925 78.9614306,352.40323 C79.8138946,352.795671 80.7363556,353 81.6688162,353 L135,353 L135,339.160769 L91.9283826,339.160769 Z" id="Path" fill="#F46B27"></path>
                    <path d="M109.453157,142.444888 C106.302123,138.363449 101.437096,135.98199 96.2870504,136 L46.8863105,136 L46.8863105,149.800145 L96.2870504,149.800145 C97.1918187,149.79594 98.0472009,150.214143 98.6007784,150.931847 C99.1637167,151.640819 99.3599704,152.573932 99.1311153,153.45012 L90.2687107,188.971152 C89.9407604,190.281391 88.7658204,191.198979 87.4178672,191.199949 L40,191.199949 L40,205 L87.4246457,205 C95.093066,205.007754 101.778604,199.774883 103.62752,192.317744 L112.483146,156.803504 C113.76041,151.805448 112.640666,146.496893 109.453157,142.444888 Z" id="Path" fill="#F46B27"></path>
                    <polygon id="Path" fill="#F46B27" points="33 163 66 163 66 176 33 176"></polygon>
                    <path d="M346,344 L325.64288,344 C321.895897,344 318.858233,340.975235 318.858233,337.248066 L318.858233,310.24982 L302.571583,322.399505 C300.159264,324.19981 296.841054,324.19981 294.428735,322.399505 L278.143039,310.24982 L278.143039,337.248066 C278.143039,340.975235 275.104739,344 271.35712,344 L251,344 L251,330.499295 L264.571519,330.499295 L264.571519,296.750381 C264.571519,293.022579 267.60982,290 271.35712,290 C272.825377,290 274.253875,290.473677 275.428544,291.350416 L298.500159,308.56247 L321.571456,291.350416 C324.57095,289.113798 328.82368,289.717802 331.072505,292.700486 C331.953587,293.868944 332.427526,295.289888 332.427526,296.750381 L332.427526,330.499295 L346,330.499295 L346,344 Z" id="Path" fill="#F46B27"></path>
                </g>
            </g>
        </g>
    </g>
</svg>