<?xml version="1.0" encoding="UTF-8"?>
<svg width="400px" height="400px" viewBox="0 0 400 400" version="1.1" xmlns="http://www.w3.org/2000/svg" xmlns:xlink="http://www.w3.org/1999/xlink">
    <!-- Generator: Sketch 63 (92445) - https://sketch.com -->
    <title>ic_mailbox</title>
    <desc>Created with Sketch.</desc>
    <defs>
        <rect id="path-1" x="0" y="0" width="400" height="400"></rect>
    </defs>
    <g id="Page-1" stroke="none" stroke-width="1" fill="none" fill-rule="evenodd">
        <g id="ic_mailbox">
            <mask id="mask-2" fill="white">
                <use xlink:href="#path-1"></use>
            </mask>
            <use id="Rectangle" fill-opacity="0" fill="#FFFFFF" xlink:href="#path-1"></use>
            <g id="mail-1" mask="url(#mask-2)" fill-rule="nonzero">
                <path d="M400,144 L400,361.494663 C400,372.648863 395.268196,382.696731 387.707937,389.729612 C380.847759,396.104336 371.674811,400 361.592381,400 L38.3986286,400 C28.3175115,400 19.1428755,396.104336 12.2939179,389.73588 C4.73381462,382.696731 0,372.648863 0,361.494663 L0,144 L400,144 Z" id="Path" fill="#FEC970"></path>
                <path d="M400,145.000904 L246.248808,16.7637624 C219.451503,-5.58792081 180.546622,-5.58792081 153.749004,16.7637624 L0,145.000904 L0,145.000904 L45.3174566,182.794632 L153.749004,273.231659 C180.549435,295.589447 219.454628,295.589447 246.245683,273.231659 L354.685669,182.794632 L400,145.000904" id="Path" fill="#FBA028"></path>
                <path d="M354,65.3864757 L354,156.026858 L245.68908,246.270201 C218.929912,268.5766 180.071024,268.5766 153.302491,246.270201 L45,156.026858 L45,65.3864757 C45,40.8746463 64.8606958,21 89.3610585,21 L309.645809,21 C334.146484,21 354,40.8746463 354,65.3864757 L354,65.3864757 Z" id="Path" fill="#E4F5F7"></path>
                <path d="M288.872131,176 L109.127869,176 C105.743308,176 103,173.313936 103,170 C103,166.688821 105.743308,164 109.127869,164 L288.872131,164 C292.256692,164 295,166.688821 295,170 C295,173.313936 292.256692,176 288.872131,176 Z" id="Path" fill="#4B5051"></path>
                <path d="M288.872131,211 L109.127869,211 C105.743308,211 103,208.314242 103,205 C103,201.686064 105.743308,199 109.127869,199 L288.872131,199 C292.256692,199 295,201.686064 295,205 C295,208.314242 292.256692,211 288.872131,211 Z" id="Path" fill="#4B5051"></path>
                <path d="M288.872131,104 L109.127869,104 C105.743308,104 103,101.313936 103,98 C103,94.6860643 105.743308,92 109.127869,92 L288.872131,92 C292.256692,92 295,94.6860643 295,98 C295,101.313936 292.256692,104 288.872131,104 Z" id="Path" fill="#4B5051"></path>
                <path d="M288.872131,140 L109.127869,140 C105.743308,140 103,137.314173 103,133.999847 C103,130.685827 105.743308,128 109.127869,128 L288.872131,128 C292.256692,128 295,130.685827 295,133.999847 C295,137.314173 292.256692,140 288.872131,140 Z" id="Path" fill="#4B5051"></path>
                <path d="M392,84.9985068 C392,131.943818 353.942855,170 307.001557,170 C260.056211,170 222,131.943818 222,84.9985068 C222,38.05631 260.056211,0 307.001557,0 C353.942855,0 392,38.05631 392,84.9985068 Z" id="Path" fill="#26BF64"></path>
                <path d="M306.384531,138 C304.603347,138 302.891771,137.208966 301.726481,135.813558 L266.425057,93.5157757 C264.264455,90.9234994 264.598194,87.0611921 267.171463,84.8872569 C269.74784,82.710195 273.586769,83.0491201 275.74737,85.6382698 L304.68818,120.314929 L337.315033,43.712867 C338.638802,40.6046992 342.221677,39.1633298 345.31047,40.497769 C348.399263,41.8290816 349.831792,45.4287531 348.504916,48.5403602 L311.980404,134.287145 C311.148854,136.244093 309.367671,137.624181 307.276676,137.932778 C306.979294,137.978426 306.681912,138 306.384531,138 L306.384531,138 Z" id="Path" fill="#FFFFFF"></path>
                <path d="M361.866968,375 C360.48394,375 359.094654,374.540047 357.949431,373.592171 L260.206248,292.766332 C257.605716,290.614499 257.254327,286.775135 259.417734,284.192562 C261.58427,281.609678 265.449552,281.257565 268.050084,283.409399 L365.790764,364.234617 C368.394111,366.385207 368.747691,370.22022 366.579278,372.805901 C365.368346,374.25413 363.622351,375 361.866968,375 L361.866968,375 Z" id="Path" fill="#FBA028"></path>
                <path d="M139.635479,292.239656 L58.822642,360.959213 C47.690883,370.42716 52.6679229,388.526265 67.0956724,391.024098 C90.3029707,395.038808 117.42107,399.54243 124.713174,400 L38.6802685,400 C28.5228886,400 19.2817122,396.104383 12.3830814,389.736006 C4.76814733,382.696943 0,372.649198 0,361.495135 L0,144 L29.1992434,144 L29.1992434,292.258147 C29.4789776,322.228697 64.7683317,338.309477 87.9082621,319.13853 L131.937594,282.638513 C134.603034,280.4381 138.590332,280.838944 140.745475,283.581233 C142.82664,286.222605 142.224106,290.09409 139.635479,292.239656 L139.635479,292.239656 Z" id="Path" fill="#FBA028"></path>
            </g>
        </g>
    </g>
</svg>