<svg width="128" height="128" viewBox="0 0 128 128" fill="none" xmlns="http://www.w3.org/2000/svg">
<path d="M48.96 99.0986C46.8926 99.0986 45.21 97.416 45.21 95.3486C45.21 93.2773 43.5312 91.5986 41.46 91.5986C39.3887 91.5986 37.71 93.2773 37.71 95.3486C37.71 100.252 40.8643 104.43 45.25 105.967V109.25C45.25 111.321 46.9287 113 49 113C51.0713 113 52.75 111.321 52.75 109.25V105.939C57.0938 104.381 60.21 100.223 60.21 95.3486C60.21 89.1455 55.1631 84.0986 48.96 84.0986C46.8926 84.0986 45.21 82.416 45.21 80.3486C45.21 78.2803 46.8926 76.5986 48.96 76.5986C51.0273 76.5986 52.71 78.2803 52.71 80.3486C52.71 82.4199 54.3887 84.0986 56.46 84.0986C58.5312 84.0986 60.21 82.4199 60.21 80.3486C60.21 75.4746 57.0938 71.3164 52.75 69.7568V64.25C52.75 62.1787 51.0713 60.5 49 60.5C46.9287 60.5 45.25 62.1787 45.25 64.25V69.7295C40.8643 71.2666 37.71 75.4443 37.71 80.3486C37.71 86.5518 42.7568 91.5986 48.96 91.5986C51.0273 91.5986 52.71 93.2803 52.71 95.3486C52.71 97.416 51.0273 99.0986 48.96 99.0986V99.0986Z" fill="#2400FF"/>
<path d="M15.2852 121.876C23.0889 126.054 33.8027 128 49 128C61.3652 128 70.6719 126.719 77.9023 123.994C79.9678 126.441 83.0547 128 86.5 128H116.75C122.953 128 128 122.953 128 116.75C128 113.871 126.911 111.242 125.126 109.25C126.912 107.258 128 104.629 128 101.75C128 98.8711 126.911 96.2422 125.126 94.25C126.912 92.2578 128 89.6289 128 86.75C128 83.8711 126.911 81.2422 125.126 79.25C126.912 77.2578 128 74.6289 128 71.75C128 65.5469 122.953 60.5 116.75 60.5H86.5C86.1348 60.5 85.7734 60.5186 85.417 60.5537C81.6533 55.9951 77.2432 52.1729 72.3838 49.2412C74.1641 47.251 75.25 44.625 75.25 41.75C75.25 37.2686 72.6152 33.3916 68.8135 31.584L75.0654 12.4131C75.4375 11.2705 75.2402 10.0195 74.5352 9.04785C73.8291 8.0752 72.7012 7.5 71.5 7.5H59.6055C58.0566 3.13477 53.8887 0 49 0C44.1104 0 39.9404 3.13477 38.3926 7.5H26.5C25.2988 7.5 24.1709 8.0752 23.4648 9.04785C22.7598 10.0195 22.5625 11.2705 22.9346 12.4131L29.1865 31.584C25.3848 33.3916 22.75 37.2686 22.75 41.75C22.75 44.627 23.8369 47.2549 25.6201 49.2461C10.5742 58.3271 0 75.5742 0 94.25C0 107.151 5.14258 116.445 15.2852 121.876V121.876ZM120.5 86.75C120.5 88.8174 118.817 90.5 116.75 90.5H86.5C84.4326 90.5 82.75 88.8174 82.75 86.75C82.75 84.6826 84.4326 83 86.5 83H116.75C118.817 83 120.5 84.6826 120.5 86.75ZM120.5 101.75C120.5 103.817 118.817 105.5 116.75 105.5H86.5C84.4326 105.5 82.75 103.817 82.75 101.75C82.75 99.6826 84.4326 98 86.5 98H116.75C118.817 98 120.5 99.6826 120.5 101.75ZM116.75 120.5H86.5C84.4326 120.5 82.75 118.817 82.75 116.75C82.75 114.683 84.4326 113 86.5 113H116.75C118.817 113 120.5 114.683 120.5 116.75C120.5 118.817 118.817 120.5 116.75 120.5ZM120.5 71.75C120.5 73.8174 118.817 75.5 116.75 75.5H86.5C84.4326 75.5 82.75 73.8174 82.75 71.75C82.75 69.6826 84.4326 68 86.5 68H116.75C118.817 68 120.5 69.6826 120.5 71.75ZM63.8926 45.5H34.1084C34.0752 45.499 34.042 45.5 34.0088 45.5H34C31.9326 45.5 30.25 43.8174 30.25 41.75C30.25 39.6865 31.9258 38.0068 33.9883 38.001H33.999C34.0078 38.001 34.0166 38 34.0254 38H63.9736C63.9824 38 63.9922 38.001 64.001 38.001H64.0117C66.0742 38.0068 67.75 39.6865 67.75 41.75C67.75 43.8174 66.0674 45.5 64 45.5H63.9883C63.957 45.5 63.9248 45.499 63.8926 45.5V45.5ZM41.5 15C43.5713 15 45.25 13.3213 45.25 11.25C45.25 9.18262 46.9326 7.5 49 7.5C51.0674 7.5 52.75 9.18262 52.75 11.25V18.75C52.75 20.8213 54.4287 22.5 56.5 22.5C58.5713 22.5 60.25 20.8213 60.25 18.75V15H66.333L61.2783 30.5H36.7217L31.667 15H41.5ZM34.7314 53H63.2539C68.9326 55.3721 74.1084 59.1074 78.4248 63.9287C76.4619 65.9551 75.25 68.7129 75.25 71.75C75.25 74.6289 76.3389 77.2578 78.124 79.25C76.3389 81.2422 75.25 83.8711 75.25 86.75C75.25 89.6289 76.3389 92.2578 78.124 94.25C76.3389 96.2422 75.25 98.8711 75.25 101.75C75.25 104.629 76.3389 107.258 78.124 109.25C76.3389 111.242 75.25 113.871 75.25 116.75C75.25 116.827 75.2539 116.903 75.2559 116.979C68.9121 119.375 60.4629 120.5 49 120.5C35.0859 120.5 25.4971 118.836 18.8252 115.264C11.0986 111.127 7.5 104.45 7.5 94.25C7.5 76.5625 18.6641 59.707 34.7314 53Z" fill="#2400FF"/>
</svg>
