<svg width="128" height="128" viewBox="0 0 128 128" fill="none" xmlns="http://www.w3.org/2000/svg">
<path d="M113 28C104.714 28 98 34.7119 98 43V48H79.9219C85.9463 37.6973 89 29.9707 89 25C89 11.2148 77.7852 0 64 0C50.2148 0 39 11.2148 39 25C39 29.9707 42.0537 37.6982 48.0781 48C46.0488 48 31.7549 48 30 48V43C30 34.7285 23.2715 28 15 28C6.71387 28 0 34.7119 0 43V57C0 58.3809 1.11914 59.5 2.5 59.5C3.88086 59.5 5 58.3809 5 57V43C5 37.4766 9.47559 33 15 33C20.5137 33 25 37.4863 25 43V101.829C22.3447 99.4492 18.8379 98 15 98C11.1611 98 7.65625 99.4512 5 101.832V77C5 75.6191 3.88086 74.5 2.5 74.5C1.11914 74.5 0 75.6191 0 77V113C0 121.577 7.4043 128 15.7129 128H113C121.271 128 128 121.271 128 113V43C128 34.7285 121.271 28 113 28ZM103 43C103 37.4766 107.476 33 113 33C118.514 33 123 37.4863 123 43V101.761C121.281 100.23 119.212 99.0918 116.955 98.5098C111.944 97.2139 106.789 98.4336 103 101.817C103 99.6797 103 46.001 103 43V43ZM98 78H66C57.6221 70.0225 41.6211 54.7822 39.751 53H51.1084C56.5664 61.7188 61.9424 68.9229 61.998 68.998C62.4707 69.6289 63.2119 70 64 70C64.7881 70 65.5293 69.6289 66.002 68.998C66.0576 68.9229 71.4346 61.7188 76.8916 53H98V78ZM64 5C75.0283 5 84 13.9717 84 25C84 34.2822 69.3574 55.7471 64 63.2471C58.5586 55.6279 44 34.1973 44 25C44 13.9717 52.9717 5 64 5ZM5 113C5 107.486 9.48633 103 15 103C20.5137 103 25 107.486 25 113C25 114.381 26.1191 115.5 27.5 115.5C28.8809 115.5 30 114.381 30 113V71.333L55.375 95.5L26.5 123H15.7129C10.1064 123 5 118.81 5 113ZM60.7236 97.3105C61.2197 96.8379 61.5 96.1836 61.5 95.5C61.5 94.8164 61.2197 94.1611 60.7236 93.6895L30 64.4287V53H32.5C32.6709 53.1631 62.085 81.1768 63.2764 82.3105C63.7412 82.7529 64.3584 83 65 83H98V93H79C78.3369 93 77.7012 93.2637 77.2324 93.7324L47.9639 123H33.75L60.7236 97.3105ZM113 123H55.0361L80.0361 98H98V113C98 114.381 99.1191 115.5 100.5 115.5C101.881 115.5 103 114.381 103 113C103 106.534 109.055 101.633 115.705 103.351C119.765 104.399 123 108.148 123 113C123 118.514 118.514 123 113 123Z" fill="#2400FF"/>
<path d="M64 37.5C70.8926 37.5 76.5 31.8926 76.5 25C76.5 18.1074 70.8926 12.5 64 12.5C57.1074 12.5 51.5 18.1074 51.5 25C51.5 31.8926 57.1074 37.5 64 37.5ZM64 17.5C68.1357 17.5 71.5 20.8643 71.5 25C71.5 29.1357 68.1357 32.5 64 32.5C59.8643 32.5 56.5 29.1357 56.5 25C56.5 20.8643 59.8643 17.5 64 17.5Z" fill="#2400FF"/>
<path d="M2.5 69.5C3.87988 69.5 5 68.3799 5 67C5 65.6201 3.87988 64.5 2.5 64.5C1.12012 64.5 0 65.6201 0 67C0 68.3799 1.12012 69.5 2.5 69.5Z" fill="black"/>
</svg>
