<svg width="64" height="64" viewBox="0 0 64 64" fill="none" xmlns="http://www.w3.org/2000/svg">
<path d="M27.7334 20.2667C25.9692 20.2667 24.5334 21.7024 24.5334 23.4667H26.6668C26.6668 22.8789 27.1446 22.4 27.7334 22.4C28.3222 22.4 28.8001 22.8789 28.8001 23.4667H30.9334C30.9334 21.7024 29.4977 20.2667 27.7334 20.2667Z" fill="#2400FF"/>
<path d="M36.2667 20.2667C34.5024 20.2667 33.0667 21.7024 33.0667 23.4667H35.2C35.2 22.8789 35.6779 22.4 36.2667 22.4C36.8555 22.4 37.3333 22.8789 37.3333 23.4667H39.4667C39.4667 21.7024 38.0309 20.2667 36.2667 20.2667Z" fill="#2400FF"/>
<path d="M32.0001 49.0667C29.647 49.0667 27.7334 50.9803 27.7334 53.3333C27.7334 55.6864 29.647 57.6 32.0001 57.6C34.3531 57.6 36.2667 55.6864 36.2667 53.3333C36.2667 50.9803 34.3531 49.0667 32.0001 49.0667ZM32.0001 55.4667C30.8235 55.4667 29.8667 54.5099 29.8667 53.3333C29.8667 52.1568 30.8235 51.2 32.0001 51.2C33.1766 51.2 34.1334 52.1568 34.1334 53.3333C34.1334 54.5099 33.1766 55.4667 32.0001 55.4667Z" fill="#2400FF"/>
<path d="M57.6 61.8667V48C57.6 39.1776 50.4224 32 41.6 32H40.4384C40.8181 31.6661 41.1755 31.3099 41.5136 30.9333H42.6667C45.6075 30.9333 48 28.5408 48 25.6V23.7205C49.2853 22.8587 50.1333 21.3931 50.1333 19.7333C50.1333 18.0672 49.2789 16.5995 47.9872 15.7387C47.8453 7.03787 40.7349 0 32 0C23.2651 0 16.1547 7.03787 16.0128 15.7387C14.7211 16.5995 13.8667 18.0672 13.8667 19.7333C13.8667 22.3797 16.0203 24.5333 18.6667 24.5333H19.3931C19.8923 27.4891 21.4027 30.0992 23.5627 32H22.4C13.5776 32 6.4 39.1776 6.4 48V61.8667H0V64H7.46667H12.8H51.2H56.5333H64V61.8667H57.6ZM45.8667 25.6C45.8667 27.2181 44.6549 28.5451 43.0944 28.7563C43.8336 27.4709 44.352 26.0469 44.6069 24.5333H45.3333C45.5157 24.5333 45.6896 24.4992 45.8667 24.4789V25.6ZM48 19.7333C48 21.2032 46.8043 22.4 45.3333 22.4H44.8V17.0667H45.3333C46.8043 17.0667 48 18.2635 48 19.7333ZM19.2 22.4H18.6667C17.1957 22.4 16 21.2032 16 19.7333C16 18.2635 17.1957 17.0667 18.6667 17.0667H19.2V22.4ZM18.6667 14.9333C18.5013 14.9333 18.3456 14.9653 18.1845 14.9824C18.7093 7.8112 24.6976 2.13333 32 2.13333C39.3024 2.13333 45.2907 7.8112 45.8155 14.9824C45.6544 14.9653 45.4987 14.9333 45.3333 14.9333H44.6069C43.5872 8.8896 38.3296 4.26667 32 4.26667C25.6704 4.26667 20.4128 8.8896 19.3931 14.9333H18.6667ZM42.6656 17.04C34.9675 16.7691 29.8667 13.6213 29.8667 10.6667C29.8667 10.0779 29.3899 9.6 28.8 9.6C28.2101 9.6 27.7333 10.0779 27.7333 10.6667C27.7333 13.3323 24.9771 15.5413 21.3952 15.9328C21.9637 10.5824 26.5024 6.4 32 6.4C37.872 6.4 42.6507 11.1712 42.6656 17.04ZM21.3333 22.4V18.0736C24.6645 17.7845 27.4912 16.1781 28.9024 13.9285C31.1339 16.8853 36.3488 18.9664 42.6667 19.1787V22.4C42.6667 24.8032 41.8581 27.0144 40.5131 28.8H32V30.9333H38.3723C37.76 31.392 37.0997 31.7867 36.3957 32.1067C33.5968 33.3781 30.4021 33.3781 27.6021 32.1067C23.9115 30.4277 21.3333 26.7136 21.3333 22.4ZM28.7029 34.7541C29.7568 35.0357 30.8587 35.2 32 35.2C33.1413 35.2 34.2432 35.0357 35.2971 34.7541L32 41.3483L28.7029 34.7541ZM30.2741 42.6667H28.3925L24.1259 34.1333H26.0075L30.2741 42.6667ZM37.9925 34.1333H39.8741L35.6075 42.6667H33.7259L37.9925 34.1333ZM11.7333 48V61.8667H8.53333V48C8.53333 40.5707 14.4107 34.5056 21.7568 34.1664L26.0075 42.6667H17.0667C14.1259 42.6667 11.7333 45.0592 11.7333 48ZM50.1333 61.8667H13.8667V48C13.8667 46.2357 15.3024 44.8 17.0667 44.8H27.7333H32H36.2667H46.9333C48.6976 44.8 50.1333 46.2357 50.1333 48V61.8667ZM55.4667 61.8667H52.2667V48C52.2667 45.0592 49.8741 42.6667 46.9333 42.6667H37.9925L42.2432 34.1664C49.5893 34.5056 55.4667 40.5707 55.4667 48V61.8667Z" fill="#2400FF"/>
<path d="M48 52.2667H45.8667V59.7334H48V52.2667Z" fill="#2400FF"/>
<path d="M48 48H45.8667V50.1333H48V48Z" fill="#2400FF"/>
<path d="M57.5999 9.59998H55.4666V11.7333H57.5999V9.59998Z" fill="#2400FF"/>
<path d="M57.5999 13.8666H55.4666V16H57.5999V13.8666Z" fill="#2400FF"/>
<path d="M57.5999 18.1334H55.4666V20.2667H57.5999V18.1334Z" fill="#2400FF"/>
<path d="M8.53324 22.4H6.3999V24.5334H8.53324V22.4Z" fill="#2400FF"/>
<path d="M8.53324 26.6666H6.3999V28.8H8.53324V26.6666Z" fill="#2400FF"/>
<path d="M8.53324 30.9333H6.3999V33.0667H8.53324V30.9333Z" fill="#2400FF"/>
</svg>
