<svg width="128" height="128" viewBox="0 0 128 128" fill="none" xmlns="http://www.w3.org/2000/svg">
<g clip-path="url(#clip0)">
<path d="M116.599 22.1027C98.9875 17.2772 81.2728 9.76348 65.3695 0.374001C64.5248 -0.124748 63.4766 -0.124748 62.6321 0.374001C46.2701 10.0332 29.5126 17.1405 11.4014 22.1027C10.2314 22.423 9.42041 23.4865 9.42041 24.6997V52.2112C9.42041 80.5418 22.4901 99.2948 33.4546 110.038C45.2586 121.604 59.0086 128 64.0008 128C68.9925 128 82.7425 121.604 94.5465 110.038C105.511 99.2951 118.58 80.5421 118.58 52.2112V24.6995C118.58 23.4865 117.769 22.423 116.599 22.1027ZM113.195 52.2109C113.195 78.6716 101.004 96.1703 90.7775 106.191C79.1698 117.565 66.759 122.615 64.0008 122.615C61.2426 122.615 48.8311 117.565 37.2231 106.191C26.9964 96.1701 14.8056 78.6716 14.8056 52.2109V26.7435C32.1251 21.826 48.2546 14.9632 64.0013 5.81249C79.3548 14.7205 96.289 21.9245 113.195 26.7425V52.2109Z" fill="#2400FF"/>
<path d="M40.1345 26.4422C39.5895 25.0584 38.0263 24.3787 36.6423 24.9239C31.8323 26.8192 26.8953 28.5637 21.9685 30.1092C20.8458 30.4617 20.0818 31.5017 20.0818 32.6782V43.0759C20.0818 44.5629 21.2875 45.7684 22.7743 45.7684C24.261 45.7684 25.4668 44.5629 25.4668 43.0759V34.6459C29.8865 33.2159 34.3015 31.6342 38.6163 29.9339C40 29.3892 40.6798 27.8259 40.1345 26.4422Z" fill="#2400FF"/>
<path d="M45.2492 26.9529C45.6104 26.9529 45.9772 26.8802 46.3289 26.7267L46.3784 26.7052C47.7407 26.1082 48.3542 24.5224 47.7572 23.1607C47.1597 21.7984 45.5649 21.1822 44.2042 21.7787L44.1607 21.7974C42.7977 22.3927 42.1822 23.9772 42.7774 25.3397C43.2192 26.3512 44.2104 26.9529 45.2492 26.9529Z" fill="#2400FF"/>
<path d="M96.0805 86.8206C94.8363 86.0074 93.1678 86.3571 92.3536 87.6019C90.1348 90.9979 87.5318 94.2498 84.6158 97.2666C82.2178 99.7471 79.6193 102.059 76.8926 104.138C75.7103 105.039 75.4828 106.729 76.3841 107.912C76.9143 108.606 77.7161 108.972 78.5271 108.972C79.0966 108.972 79.6703 108.792 80.1578 108.42C83.0991 106.177 85.9016 103.684 88.4871 101.01C91.6398 97.7486 94.4573 94.2286 96.8618 90.5474C97.6755 89.3024 97.3253 87.6339 96.0805 86.8206Z" fill="#2400FF"/>
<path d="M70.6395 108.36L70.485 108.451C69.1982 109.197 68.7585 110.844 69.5035 112.13C70.0027 112.993 70.9065 113.474 71.8362 113.474C72.2937 113.474 72.7582 113.358 73.1825 113.111L73.3607 113.007C74.644 112.255 75.075 110.606 74.3235 109.323C73.5715 108.04 71.922 107.61 70.6395 108.36Z" fill="#2400FF"/>
<path d="M45.6472 58.5046C43.994 56.8511 41.7952 55.9411 39.4567 55.9411C37.1182 55.9411 34.9193 56.8514 33.2653 58.5046C29.852 61.9186 29.852 67.4736 33.2653 70.8873L49.1642 86.7858C50.8177 88.4388 53.0165 89.3491 55.3552 89.3491C57.694 89.3491 59.8927 88.4388 61.5465 86.7853L94.7366 53.5949C98.1496 50.1801 98.1496 44.6259 94.7361 41.2132C93.0826 39.5597 90.8839 38.6497 88.5449 38.6497C86.2062 38.6497 84.0074 39.5599 82.3537 41.2132L55.355 68.2118L45.6472 58.5046ZM86.1617 45.0211C86.7979 44.3849 87.6447 44.0346 88.5452 44.0346C89.4461 44.0346 90.2921 44.3849 90.9289 45.0211C92.2426 46.3349 92.2426 48.4734 90.9284 49.7876L57.7387 82.9776C57.1025 83.6138 56.2557 83.9641 55.3552 83.9641C54.4547 83.9641 53.608 83.6138 52.9715 82.9776L37.073 67.0796C35.7588 65.7654 35.7587 63.6269 37.0725 62.3131C37.709 61.6769 38.5557 61.3261 39.4565 61.3261C40.3572 61.3261 41.2035 61.6764 41.8397 62.3126L53.451 73.9241C53.9562 74.4288 54.6407 74.7126 55.355 74.7126C56.0692 74.7126 56.7537 74.4291 57.2585 73.9241L86.1617 45.0211Z" fill="#2400FF"/>
</g>
<defs>
<clipPath id="clip0">
<rect width="128" height="128" fill="white"/>
</clipPath>
</defs>
</svg>
