<svg width="128" height="128" viewBox="0 0 128 128" fill="none" xmlns="http://www.w3.org/2000/svg">
<g clip-path="url(#clip0)">
<path d="M127.786 59.2653C127.86 59.0651 127.903 58.8554 127.913 58.6416C127.913 58.4164 127.876 58.1922 127.806 57.9784L127.641 57.5122C125.898 40.6591 117.532 25.1889 104.382 14.5056C103.442 13.7401 102.46 13.0487 101.477 12.3395C101.428 12.2989 101.402 12.2415 101.349 12.2029C101.296 12.1643 101.253 12.1685 101.208 12.1403C90.3363 4.34684 77.3023 0.145046 63.9252 0.120017C63.3745 0.120017 62.8207 0.120017 62.4088 0.162775C55.2734 0.301479 48.2151 1.65932 41.5375 4.17789C35.7484 -0.33781 27.8903 -1.15648 21.294 2.06917C14.6977 5.29482 10.5189 12.0006 10.5293 19.3425C10.6576 21.785 11.2249 24.1836 12.2063 26.4227C10.0266 29.4022 8.10773 32.5632 6.47144 35.8723C6.43911 35.9234 6.42034 35.9787 6.39218 36.0318C-8.75054 67.3425 3.84962 105.017 34.7827 120.917C65.7147 136.818 103.684 125.138 120.333 94.6015C124.892 86.201 127.484 76.8744 127.91 67.3268C127.977 66.2964 128 65.2463 128 64.195C128 62.54 127.915 60.8995 127.786 59.2653V59.2653ZM121.58 48.3045C121.309 48.0636 121.059 47.7852 120.775 47.5631C117.984 45.4439 114.821 43.8639 111.45 42.9055C108.379 42.1348 105.17 42.1015 102.084 42.8075C99.4595 43.4019 96.7375 43.4155 94.1063 42.8471C89.0003 41.7323 84.9654 40.8531 82.8254 37.4356C79.7604 32.5225 81.1975 25.6176 84.4314 23.1876C85.4973 22.4524 86.8124 22.1719 88.0857 22.4076C90.3509 22.5932 92.6275 22.2094 94.707 21.2927C96.92 20.2561 98.8859 18.7595 100.474 16.9011C100.878 17.2129 101.304 17.4935 101.7 17.8157C111.338 25.6624 118.287 36.3207 121.58 48.3045ZM29.7518 4.39168C38.0042 4.40524 44.6901 11.0912 44.7027 19.3425C44.7027 25.7312 35.107 40.3577 29.7518 47.7727C24.674 40.9105 20.2615 33.579 16.576 25.8783C15.5717 23.8332 14.9689 21.615 14.801 19.3425C14.8104 11.0891 21.4984 4.40107 29.7518 4.39168ZM4.12181 64.195C4.13016 60.2154 4.53167 56.2451 5.32009 52.3437C5.54849 55.3128 5.9354 57.9544 6.28164 60.2456C7.60506 69.0027 8.85548 77.2582 15.3099 84.8077C18.0089 87.9885 22.5288 93.3062 29.5172 94.0925C36.5056 94.8789 45.2564 90.8585 47.7844 89.6071L48.7543 89.1179C50.0975 88.2722 51.6326 87.781 53.2168 87.6892C55.9189 87.9343 58.4218 89.2129 60.2052 91.258C63.8501 95.2929 64.7751 102.03 62.1846 105.675C61.3544 106.757 60.2083 107.554 58.9037 107.955C56.6708 108.701 54.7728 110.215 53.5474 112.226C51.7421 115.495 51.4063 119.375 52.6244 122.905C24.4957 117.455 4.16562 92.8473 4.12181 64.195V64.195ZM63.9252 123.998C61.8613 123.998 59.7995 123.892 57.746 123.68C57.5708 123.456 57.4082 123.222 57.259 122.979C55.8157 120.31 55.8 117.094 57.2183 114.411C57.989 113.187 59.1831 112.289 60.5723 111.888C62.609 111.186 64.3861 109.882 65.6657 108.149C69.3805 102.925 68.3293 93.8746 63.3808 88.4004C60.8069 85.4574 57.1652 83.6636 53.2637 83.4175H53.1688C50.9193 83.4853 48.7272 84.1382 46.8062 85.3125L45.8947 85.7734C41.2278 88.074 34.5877 90.3486 29.9917 89.8313C24.6876 89.2379 21.0041 84.8974 18.5606 82.0232C12.8956 75.4019 11.787 68.0756 10.5064 59.5969C9.13185 52.3437 9.07762 44.9026 10.3437 37.6296C11.4877 35.3133 12.7799 33.0732 14.2138 30.9227C14.2848 31.0646 14.363 31.2095 14.4276 31.3503C14.5642 31.6215 14.705 31.8905 14.8542 32.1617C15.068 32.5653 15.2818 32.9689 15.4955 33.3756C15.6426 33.6488 15.7917 33.9221 15.944 34.1974C16.1703 34.6031 16.3987 35.0088 16.6292 35.4145C16.7835 35.6835 16.9368 35.9536 17.0932 36.2227C17.331 36.6284 17.5688 37.032 17.8087 37.4356C17.9661 37.7005 18.1226 37.9633 18.2821 38.2261C18.5345 38.6526 18.789 39.0521 19.0434 39.464C19.1884 39.6976 19.3313 39.9343 19.47 40.1648C19.786 40.6717 20.0999 41.1629 20.4138 41.6603C20.4972 41.7886 20.5807 41.9231 20.662 42.0493C21.0531 42.6552 21.441 43.2465 21.8217 43.8233C21.9667 44.0371 22.1075 44.2508 22.2493 44.4646C22.4839 44.8171 22.7186 45.1696 22.947 45.5065L23.4538 46.248C23.6374 46.5191 23.823 46.7903 24.0024 47.0489L24.5144 47.7852C24.673 48.0146 24.8315 48.2388 24.9827 48.4537C25.1339 48.6696 25.3049 48.9136 25.4635 49.1336C25.6209 49.3537 25.7284 49.507 25.8545 49.6843L26.2811 50.2735L26.6294 50.7564L26.9694 51.2246L27.2468 51.6001L27.5075 51.9547L27.6629 52.1684C27.8538 52.4271 27.9987 52.6211 28.0394 52.6742C28.442 53.2124 29.075 53.5294 29.7476 53.5294C30.4203 53.5294 31.0533 53.2124 31.4559 52.6742C33.2486 50.2975 48.9743 29.2145 48.9743 19.3425C48.9743 18.7189 48.9357 18.0994 48.8763 17.4841C48.8575 17.2943 48.8273 17.1045 48.8033 16.9147C48.748 16.4871 48.6823 16.0595 48.5905 15.633C48.5499 15.4192 48.505 15.2189 48.4581 15.0135C48.359 14.5859 48.2443 14.1594 48.1139 13.7318C48.0607 13.5608 48.0159 13.3876 47.9596 13.2197C47.7677 12.6472 47.5518 12.0809 47.3067 11.5302C47.2598 11.4249 47.2035 11.3165 47.1545 11.2205C46.9407 10.7762 46.7279 10.3361 46.4818 9.90647C46.3754 9.71458 46.2576 9.52895 46.1429 9.34018C45.9374 9.00333 45.7236 8.67169 45.5015 8.34527C45.3691 8.15546 45.2345 7.96566 45.0958 7.77898C45.0228 7.68512 44.9613 7.58501 44.882 7.49323C49.3258 5.99669 53.9343 5.0414 58.6075 4.64823C55.2775 10.9337 54.1898 16.7478 55.4329 21.9487C56.36 25.4319 58.1194 28.6388 60.5598 31.293C62.5694 33.7813 64.0148 35.5751 63.9252 38.5035C63.7416 44.6972 56.747 49.8532 54.1001 51.8013C50.6283 54.3012 46.7478 56.1752 42.6315 57.3412C38.7519 58.6083 35.4053 59.7012 34.1257 63.5203C32.8607 68.5637 34.9381 73.8553 39.2974 76.6899C41.9098 78.1009 44.9884 78.3731 47.8084 77.4418C50.8974 76.7243 54.0907 76.571 57.234 76.9913C61.2919 77.5659 64.7908 78.0592 66.45 80.3827C67.4345 81.7708 67.3834 83.2058 67.1915 85.8381C66.7535 89.5643 67.132 93.3416 68.299 96.9073C69.2731 99.8294 70.7446 104.242 74.28 104.751C74.5094 104.787 74.742 104.806 74.9735 104.806C77.4754 104.806 79.0063 102.597 80.6166 100.274C81.3278 99.2465 82.1121 98.1379 83.0517 97.0251C87.4475 104.127 91.9131 110.054 92.1207 110.335C92.5243 110.874 93.1573 111.19 93.8289 111.19C94.5016 111.19 95.1346 110.874 95.5382 110.335C100.172 104.13 104.395 97.6269 108.18 90.87C110.804 91.6303 113.303 92.7691 115.597 94.251C104.911 112.673 85.222 124.008 63.9252 123.998V123.998ZM103.791 65.8762C106.964 68.7066 108.779 72.7571 108.778 77.01C108.778 78.5462 108.154 81.5914 105.192 87.3753C101.811 93.642 98.0151 99.6741 93.8268 105.432C91.8172 102.632 88.359 97.6613 85.2647 92.4375C83.5398 89.5737 81.9994 86.6046 80.651 83.5458C79.6467 81.5007 79.0439 79.2825 78.876 77.01C78.8854 68.7566 85.5734 62.0686 93.8268 62.0592C94.2888 62.0592 94.7466 62.08 95.2024 62.1218C98.3957 62.4106 101.41 63.7289 103.791 65.8762V65.8762ZM123.653 67.1068C123.285 75.2309 121.238 83.1902 117.639 90.4831C115.299 89.0032 112.777 87.8289 110.139 86.9884C111.788 83.9004 112.78 80.5016 113.049 77.01C113.032 69.6806 108.864 62.9936 102.291 59.7482L102.156 59.6887C101.679 59.4582 101.194 59.2424 100.698 59.0484C100.358 58.9159 100.006 58.8127 99.6576 58.7021C99.4438 58.6375 99.2519 58.5572 99.0444 58.4883C98.4937 58.3319 97.9337 58.2047 97.3706 58.0993H97.3424C97.0014 58.0357 96.6551 58.0013 96.3089 57.9565C90.817 57.1962 85.2658 58.8617 81.0994 62.5191C76.932 66.1776 74.5616 71.466 74.6043 77.01C74.7701 79.8571 75.4887 82.6458 76.7193 85.2186C77.9165 87.9447 79.2671 90.6009 80.7647 93.1737C79.4298 94.6348 78.2075 96.1939 77.1073 97.8386C76.5201 98.845 75.7786 99.7523 74.9099 100.528C74.4823 100.464 73.6908 99.552 72.3465 95.5557C71.3662 92.5219 71.0585 89.3098 71.4475 86.1457C72.0023 83.3039 71.4569 80.3577 69.9228 77.9027C67.1956 74.0889 62.4349 73.4173 57.8024 72.7603C54.2013 72.268 50.5407 72.4328 46.9991 73.2452C44.2667 73.7677 42.9986 73.9627 41.5479 73.0585C38.8979 71.2418 37.5735 68.0287 38.1731 64.8719C38.7436 63.1636 40.4529 62.5462 43.9403 61.4011C48.4946 60.0944 52.7871 58.0086 56.6291 55.2356C59.7411 52.9527 67.9497 46.8946 68.1968 38.6297C68.3334 34.1077 66.0714 31.318 63.8845 28.6211C61.8634 26.4561 60.3929 23.8374 59.5961 20.9851C58.4615 16.2264 59.8673 10.6459 63.6801 4.39168H63.9252C75.6837 4.40837 87.1784 7.88327 96.9774 14.3836C95.8459 15.6444 94.4765 16.6686 92.9466 17.3975C91.4574 18.042 89.8294 18.2965 88.214 18.138C85.9676 17.8606 83.7004 18.4435 81.8659 19.7701C77.0228 23.416 74.8525 32.7134 79.2055 39.6955C82.304 44.644 87.5966 45.7974 93.3763 47.0573C96.4872 47.7143 99.7025 47.7007 102.808 47.0166C105.301 46.4221 107.9 46.4294 110.388 47.0406C113.188 47.8478 115.816 49.1639 118.142 50.9212C120.557 52.9245 122.388 55.5401 123.445 58.4946C123.62 60.3812 123.728 62.273 123.728 64.195C123.728 65.1503 123.71 66.1171 123.645 67.1068H123.653Z" fill="#2400FF"/>
<path d="M29.7513 25.75C34.4694 25.75 38.2947 21.9258 38.2947 17.2067C38.2947 12.4887 34.4694 8.66337 29.7513 8.66337C25.0333 8.66337 21.208 12.4887 21.208 17.2067C21.208 21.9258 25.0333 25.75 29.7513 25.75ZM29.7513 12.935C32.1104 12.935 34.023 14.8477 34.023 17.2067C34.023 19.5657 32.1104 21.4784 29.7513 21.4784C27.3923 21.4784 25.4797 19.5657 25.4797 17.2067C25.4797 14.8477 27.3923 12.935 29.7513 12.935Z" fill="#2400FF"/>
<path d="M85.2832 74.8742C85.2832 79.5933 89.1085 83.4175 93.8265 83.4175C98.5446 83.4175 102.37 79.5933 102.37 74.8742C102.37 70.1562 98.5446 66.3309 93.8265 66.3309C89.1085 66.3309 85.2832 70.1562 85.2832 74.8742ZM98.0982 74.8742C98.0982 77.2332 96.1856 79.1459 93.8265 79.1459C91.4675 79.1459 89.5549 77.2332 89.5549 74.8742C89.5549 72.5152 91.4675 70.6025 93.8265 70.6025C96.1856 70.6025 98.0982 72.5152 98.0982 74.8742Z" fill="#2400FF"/>
</g>
<defs>
<clipPath id="clip0">
<rect width="128" height="128" fill="white"/>
</clipPath>
</defs>
</svg>
