<svg width="88" height="48" viewBox="0 0 88 48" fill="none" xmlns="http://www.w3.org/2000/svg">
<g clip-path="url(#clip0)">
<path fill-rule="evenodd" clip-rule="evenodd" d="M4.14802 11.1129C3.15737 11.1129 2.34933 11.9201 2.34933 12.9102V44.0675C2.34933 45.0588 3.15716 45.8662 4.14802 45.8662H70.1911C71.1826 45.8662 71.9884 45.0595 71.9884 44.0675V12.9102C71.9884 11.9194 71.1824 11.1129 70.1911 11.1129H4.14802ZM70.1911 47.9777H4.14802C1.9921 47.9777 0.237793 46.2234 0.237793 44.0675V12.9102C0.237793 10.7543 1.9921 9 4.14802 9H70.1911C72.347 9 74.1013 10.7543 74.1013 12.9102V44.0675C74.1013 46.2234 72.347 47.9777 70.1911 47.9777Z" fill="#6D48E5" stroke="#6D48E5" stroke-width="0.5"/>
<path fill-rule="evenodd" clip-rule="evenodd" d="M81.8447 2.24338C79.9676 2.24338 78.4423 3.77031 78.4423 5.64718C78.4423 7.52377 79.9673 9.04959 81.8447 9.04959C83.7203 9.04959 85.2471 7.5228 85.2471 5.64718C85.2471 3.77128 83.7201 2.24338 81.8447 2.24338ZM81.8447 11.1625C78.8024 11.1625 76.328 8.68856 76.328 5.64718C76.328 2.6058 78.8024 0.131836 81.8447 0.131836C84.8856 0.131836 87.3587 2.60576 87.3587 5.64718C87.3587 8.6886 84.8856 11.1625 81.8447 11.1625ZM16.3405 25.3307H14.9435V25.5549C14.9435 26.1393 14.4717 26.6121 13.8877 26.6121H10.772C10.1878 26.6121 9.71484 26.1391 9.71484 25.5549V20.1809C9.71484 19.5967 10.1878 19.1237 10.772 19.1237H22.2677C22.8507 19.1237 23.3234 19.597 23.3234 20.1809V24.275C23.3234 24.8577 22.8504 25.3307 22.2677 25.3307C21.6858 25.3307 21.2119 24.8573 21.2119 24.275V21.2367H11.8278V24.4991H12.832V24.275C12.832 23.691 13.3047 23.2178 13.8877 23.2178H18.4446C18.8515 23.2178 19.2234 23.454 19.3967 23.8227C19.5721 24.1929 19.519 24.6289 19.2588 24.9438C16.4905 28.3218 15.2004 31.9237 14.8917 35.1346H18.3205C18.3511 31.7279 18.7185 28.9652 19.4144 26.9134C19.6045 26.3596 20.2013 26.0643 20.7548 26.2523C21.3073 26.4404 21.603 27.0406 21.416 27.5927C20.7394 29.5825 20.4079 32.3964 20.4315 35.9561L20.4342 36.1903C20.4342 36.7729 19.9601 37.2461 19.3771 37.2461H13.7835C13.2121 37.2461 12.7457 36.7947 12.7264 36.2242C12.7243 36.1523 12.7237 36.0487 12.7266 35.9098C12.731 35.697 12.7428 35.4552 12.764 35.1864C12.8227 34.4413 12.9425 33.6148 13.1391 32.7245C13.6841 30.2562 14.711 27.7463 16.3405 25.3307ZM36.9902 25.3307H35.5932V25.5549C35.5932 26.1388 35.1204 26.6121 34.5374 26.6121H31.4203C30.8382 26.6121 30.3645 26.1384 30.3645 25.5549V20.1809C30.3645 19.5974 30.8382 19.1237 31.4203 19.1237H42.9173C43.5003 19.1237 43.9731 19.597 43.9731 20.1809V24.275C43.9731 24.8577 43.5001 25.3307 42.9173 25.3307C42.3346 25.3307 41.8616 24.8577 41.8616 24.275V21.2367H32.4774V24.4991H33.4816V24.275C33.4816 23.691 33.9544 23.2178 34.5374 23.2178H39.0929C39.5009 23.2178 39.873 23.4538 40.0464 23.8227C40.2212 24.1917 40.1681 24.6277 39.9098 24.9438C37.1394 28.3203 35.8534 31.9126 35.5414 35.1346H38.9687C38.9994 31.7251 39.3673 28.9635 40.0654 26.9137C40.2526 26.3595 40.8482 26.0644 41.4045 26.2523C41.9568 26.4409 42.2538 27.0418 42.0657 27.5927C41.3876 29.5825 41.0562 32.3964 41.0811 35.9565L41.0825 36.1903C41.0825 36.7726 40.6086 37.2461 40.0267 37.2461H34.4304C33.8625 37.2461 33.3954 36.794 33.3746 36.2238C33.3728 36.1432 33.3724 36.0475 33.3754 35.9098C33.38 35.6966 33.392 35.455 33.4133 35.1863C33.4724 34.4409 33.5924 33.6146 33.7891 32.7245C34.3346 30.2559 35.3614 27.7462 36.9902 25.3307ZM57.6413 25.3307H56.2498V25.5549C56.2498 26.1381 55.7749 26.6121 55.1926 26.6121H52.0755C51.4934 26.6121 51.0197 26.1384 51.0197 25.5549V20.1809C51.0197 19.5974 51.4934 19.1237 52.0755 19.1237H63.5712C64.1533 19.1237 64.6269 19.5974 64.6269 20.1809V24.275C64.6269 24.8573 64.153 25.3307 63.5712 25.3307C62.9882 25.3307 62.514 24.8575 62.514 24.275V21.2367H53.1313V24.4991H54.1369V24.275C54.1369 23.691 54.6096 23.2178 55.1926 23.2178H59.7467C60.1545 23.2178 60.5266 23.4536 60.7016 23.8227C60.8764 24.1917 60.8233 24.6277 60.5651 24.9438C57.7935 28.3215 56.5072 31.9132 56.1952 35.1346H59.624C59.6546 31.7229 60.0213 28.963 60.718 26.9132C60.9089 26.3612 61.5072 26.0666 62.0583 26.2523C62.6108 26.4404 62.9065 27.0406 62.7195 27.5928C62.0417 29.5764 61.7113 32.3865 61.735 35.9547L61.7377 36.1903C61.7377 36.7729 61.2636 37.2461 60.6806 37.2461H55.087C54.516 37.2461 54.0492 36.7951 54.0299 36.2242C54.0278 36.152 54.0272 36.0487 54.03 35.9099C54.0344 35.697 54.0461 35.4552 54.0673 35.1864C54.1258 34.4413 54.2454 33.6148 54.4417 32.7245C54.9861 30.2562 56.0124 27.7463 57.6413 25.3307Z" fill="#6D48E5" stroke="#6D48E5" stroke-width="0.5"/>
<path fill-rule="evenodd" clip-rule="evenodd" d="M80.7883 26.6687V12.0305C80.7883 11.4468 81.2608 10.9747 81.8441 10.9747C82.4273 10.9747 82.8998 11.4468 82.8998 12.0305V27.7259C82.8998 28.3086 82.4268 28.7816 81.8441 28.7816H79.5288C78.9472 28.7816 78.4744 28.3084 78.4744 27.7259C78.4744 27.1422 78.947 26.6687 79.5288 26.6687H80.7883ZM75.4115 32.1984H75.4778L75.4115 32.2646V32.1984ZM75.4115 32.1984V23.2534H74.9219C74.3394 23.2534 73.8662 22.7792 73.8662 22.1962C73.8662 21.6134 74.3392 21.1404 74.9219 21.1404H76.4673C77.0512 21.1404 77.5244 21.6132 77.5244 22.1962V33.2541C77.5244 33.8374 77.051 34.3113 76.4673 34.3113H75.3986C74.814 34.3113 74.3414 33.8378 74.3414 33.2541C74.3414 32.6707 74.8137 32.1984 75.3986 32.1984H75.4115ZM7.46205 16.252V40.1169H23.1634C23.7455 40.1169 24.2191 40.5906 24.2191 41.1741C24.2191 41.7564 23.7452 42.2298 23.1634 42.2298H6.40489C5.82304 42.2298 5.34912 41.7564 5.34912 41.1741V15.1963C5.34912 14.6137 5.82328 14.1391 6.40489 14.1391H23.1634C23.745 14.1391 24.2191 14.6137 24.2191 15.1963C24.2191 15.7786 23.7452 16.252 23.1634 16.252H7.46205ZM27.9853 40.1169H46.3552V16.2506H27.9853V40.1169ZM47.411 42.2298H26.9295C26.3465 42.2298 25.8723 41.7566 25.8723 41.1741V15.1963C25.8723 14.6135 26.3467 14.1391 26.9295 14.1391H47.411C47.9947 14.1391 48.4682 14.613 48.4682 15.1963V41.1741C48.4682 41.7571 47.9949 42.2298 47.411 42.2298ZM66.8381 40.1169V16.252H51.141C50.5582 16.252 50.0852 15.779 50.0852 15.1963C50.0852 14.6132 50.5584 14.1391 51.141 14.1391H67.8967C68.4801 14.1391 68.9525 14.6128 68.9525 15.1963V41.1741C68.9525 41.7573 68.4804 42.2298 67.8967 42.2298H51.141C50.5582 42.2298 50.0852 41.7568 50.0852 41.1741C50.0852 40.5901 50.558 40.1169 51.141 40.1169H66.8381Z" fill="#6D48E5" stroke="#6D48E5" stroke-width="0.5"/>
</g>
<defs>
<clipPath id="clip0">
<rect width="87.5138" height="48" fill="white"/>
</clipPath>
</defs>
</svg>
